{
	"asset":
	{
		"version": "2.0",
		"generator": "Unreal Engine 5.2.0"
	},
	"scene": 0,
	"accessors": [
		{
			"bufferView": 0,
			"count": 492,
			"type": "SCALAR",
			"componentType": 5121
		},
		{
			"bufferView": 1,
			"count": 124,
			"type": "VEC3",
			"componentType": 5126,
			"min": [ 24.7210255, -268.635193, -25.8861599 ],
			"max": [ 393.888397, 268.635193, 25.8861599 ]
		},
		{
			"bufferView": 2,
			"count": 124,
			"type": "VEC3",
			"componentType": 5126
		},
		{
			"bufferView": 3,
			"count": 124,
			"type": "VEC4",
			"componentType": 5126
		},
		{
			"bufferView": 4,
			"count": 124,
			"type": "VEC2",
			"componentType": 5126
		},
		{
			"bufferView": 5,
			"count": 124,
			"type": "VEC2",
			"componentType": 5126
		}
	],
	"buffers": [
		{
			"uri": "https://raw.githubusercontent.com/simple11q/nybooksellers/main/bookAbetare.bin",
			"byteLength": 7436
		}
	],
	"bufferViews": [
		{
			"buffer": 0,
			"byteLength": 492,
			"target": 34963
		},
		{
			"buffer": 0,
			"byteLength": 1488,
			"byteOffset": 492,
			"target": 34962
		},
		{
			"buffer": 0,
			"byteLength": 1488,
			"byteOffset": 1980,
			"target": 34962
		},
		{
			"buffer": 0,
			"byteLength": 1984,
			"byteOffset": 3468,
			"target": 34962
		},
		{
			"buffer": 0,
			"byteLength": 992,
			"byteOffset": 5452,
			"target": 34962
		},
		{
			"buffer": 0,
			"byteLength": 992,
			"byteOffset": 6444,
			"target": 34962
		}
	],
	"materials": [
		{
			"name": "NewMaterial",
			"pbrMetallicRoughness":
			{
				"baseColorFactor": [ 0, 0, 0, 1 ],
				"metallicFactor": 0,
				"roughnessFactor": 0.5
			}
		}
	],
	"meshes": [
		{
			"name": "bookAbetare",
			"primitives": [
				{
					"attributes":
					{
						"POSITION": 1,
						"NORMAL": 2,
						"TANGENT": 3,
						"TEXCOORD_0": 4,
						"TEXCOORD_1": 5
					},
					"indices": 0,
					"material": 0
				}
			]
		}
	],
	"nodes": [
		{
			"mesh": 0
		}
	],
	"scenes": [
		{
			"nodes": [ 0 ]
		}
	]
}